<?xml version="1.0" standalone="no"?>
<!DOCTYPE svg PUBLIC "-//W3C//DTD SVG 20010904//EN"
 "http://www.w3.org/TR/2001/REC-SVG-20010904/DTD/svg10.dtd">
<svg version="1.0" xmlns="http://www.w3.org/2000/svg"
 width="72.000000pt" height="72.000000pt" viewBox="0 0 72.000000 72.000000"
 preserveAspectRatio="xMidYMid meet">
<metadata>
Created by potrace 1.14, written by Peter Selinger 2001-2017
</metadata>
<g transform="translate(0.000000,72.000000) scale(0.100000,-0.100000)"
fill="#000000" stroke="none">
<path d="M0 360 l0 -360 360 0 360 0 0 360 0 360 -360 0 -360 0 0 -360z m378
113 c2 -9 -6 -11 -30 -7 -56 11 -68 24 -19 22 25 -2 46 -9 49 -15z m-258 -13
c3 -4 5 -33 5 -64 0 -38 4 -56 13 -56 6 0 12 -4 12 -10 0 -5 -5 -10 -11 -10
-6 0 -1 -13 10 -29 12 -16 21 -36 21 -45 0 -23 -42 -20 -73 4 -14 11 -31 20
-39 20 -33 1 -56 64 -35 98 5 6 5 16 2 22 -3 5 4 28 17 50 20 35 27 40 48 34
14 -3 27 -9 30 -14z"/>
</g>
</svg>
